<svg id="visual" viewBox="0 0 1920 1080" width="1920" height="1080" xmlns="http://www.w3.org/2000/svg" xmlns:xlink="http://www.w3.org/1999/xlink" version="1.1"><rect x="0" y="0" width="1920" height="1080" fill="#001220"></rect><defs><linearGradient id="grad1_0" x1="43.8%" y1="100%" x2="100%" y2="0%"><stop offset="14.444444444444446%" stop-color="#001220" stop-opacity="1"></stop><stop offset="85.55555555555554%" stop-color="#001220" stop-opacity="1"></stop></linearGradient></defs><defs><linearGradient id="grad2_0" x1="0%" y1="100%" x2="56.3%" y2="0%"><stop offset="14.444444444444446%" stop-color="#001220" stop-opacity="1"></stop><stop offset="85.55555555555554%" stop-color="#001220" stop-opacity="1"></stop></linearGradient></defs><g transform="translate(1920, 1080)"><path d="M-540 0C-420.4 -8.2 -300.7 -16.3 -291.9 -35.4C-283 -54.5 -384.9 -84.6 -411.7 -101.5C-438.4 -118.4 -390.1 -122.1 -403 -152.8C-415.9 -183.6 -490.1 -241.2 -472.8 -248.2C-455.5 -255.1 -346.7 -211.2 -319.3 -220.4C-291.9 -229.6 -345.9 -291.8 -333.8 -295.8C-321.7 -299.7 -243.5 -245.3 -230.8 -260.5C-218 -275.6 -270.7 -360.3 -288 -417.3C-305.3 -474.2 -287.2 -503.4 -251 -478.1C-214.7 -452.9 -160.4 -373.1 -129.4 -341.3C-98.5 -309.5 -91 -325.8 -80.2 -325.3C-69.4 -324.8 -55.3 -307.5 -41.3 -340.5C-27.4 -373.5 -13.7 -456.7 0 -540L0 0Z" fill="#FBAE3C"></path></g><g transform="translate(0, 0)"><path d="M540 0C413.1 6.7 286.1 13.4 293.8 35.7C301.6 57.9 444 95.7 491.3 121.1C538.6 146.5 490.9 159.6 475.9 180.5C460.9 201.4 478.7 230.1 471.9 247.7C465.2 265.3 433.9 271.9 421.4 290.8C408.8 309.8 415 341.2 404.2 358.1C393.4 375 365.5 377.5 341.5 385.5C317.5 393.4 297.4 406.8 257.3 372.8C217.3 338.8 157.3 257.4 145.5 277.1C133.6 296.9 170 417.8 160.6 423.6C151.3 429.4 96.2 320.1 70.8 287.4C45.5 254.7 49.8 298.5 42.9 353.4C36.1 408.3 18 474.1 0 540L0 0Z" fill="#FBAE3C"></path></g></svg>